<svg width="32" height="33" viewBox="0 0 32 33" fill="none" xmlns="http://www.w3.org/2000/svg">
<path fill-rule="evenodd" clip-rule="evenodd" d="M15.6814 28.305C12.7872 26.5239 10.0949 24.4275 7.65243 22.0536C5.93529 20.3439 4.62805 18.2597 3.83084 15.9605C2.39623 11.5004 4.07195 6.39444 8.76153 4.88336C11.2262 4.08991 13.918 4.5434 15.9948 6.10197C18.0725 4.5453 20.7633 4.09197 23.2281 4.88336C27.9177 6.39444 29.6055 11.5004 28.1709 15.9605C27.3737 18.2597 26.0664 20.3439 24.3493 22.0536C21.9069 24.4275 19.2145 26.5239 16.3203 28.305L16.0069 28.5L15.6814 28.305Z" stroke="#2E4B77" stroke-width="1.5" stroke-linecap="round" stroke-linejoin="round"/>
<path d="M20.9858 9.90405C22.4062 10.3578 23.4155 11.633 23.5416 13.1334" stroke="#2E4B77" stroke-width="1.5" stroke-linecap="round" stroke-linejoin="round"/>
</svg>
