<svg width="54" height="54" viewBox="0 0 54 54" fill="none" xmlns="http://www.w3.org/2000/svg">
<path d="M27 19.3438C22.7781 19.3438 19.3438 22.7781 19.3438 27C19.3438 31.2219 22.7781 34.6562 27 34.6562C31.2219 34.6562 34.6562 31.2219 34.6562 27C34.6562 22.7781 31.2219 19.3438 27 19.3438ZM27 31.375C24.5828 31.375 22.625 29.4172 22.625 27C22.625 24.5937 24.5828 22.625 27 22.625C29.4172 22.625 31.375 24.5937 31.375 27C31.375 29.4172 29.4172 31.375 27 31.375Z" fill="#CBD9EF"/>
<path d="M27 0.75C12.5297 0.75 0.75 12.5297 0.75 27C0.75 41.4812 12.5297 53.25 27 53.25C41.4703 53.25 53.25 41.4812 53.25 27C53.25 12.5297 41.4703 0.75 27 0.75ZM10.5938 27C10.5938 27.6125 10.1015 28.0938 9.5 28.0938C8.89845 28.0938 8.40625 27.6125 8.40625 27C8.40625 16.7516 16.7516 8.40625 27 8.40625C27.6015 8.40625 28.0938 8.89845 28.0938 9.5C28.0938 10.1125 27.6015 10.5938 27 10.5938C17.9547 10.5938 10.5938 17.9547 10.5938 27ZM27 36.8438C21.575 36.8438 17.1562 32.436 17.1562 27C17.1562 21.575 21.575 17.1562 27 17.1562C32.425 17.1562 36.8438 21.575 36.8438 27C36.8438 32.436 32.425 36.8438 27 36.8438Z" fill="#CBD9EF"/>
</svg>
