<svg width="24" height="24" viewBox="0 0 24 24" fill="none" xmlns="http://www.w3.org/2000/svg">
<path fill-rule="evenodd" clip-rule="evenodd" d="M11.6648 18.6316L5.73341 21.881C5.25984 22.1271 4.67641 21.9529 4.41533 21.4874V21.4874C4.3398 21.3432 4.29905 21.1834 4.29634 21.0206V6.62242C4.29634 3.87643 6.17277 2.77803 8.873 2.77803H15.2162C17.8341 2.77803 19.7929 3.8032 19.7929 6.43936V21.0206C19.7929 21.2803 19.6897 21.5295 19.506 21.7131C19.3224 21.8968 19.0733 22 18.8135 22C18.6478 21.9974 18.485 21.9567 18.3375 21.881L12.3696 18.6316C12.1497 18.5128 11.8847 18.5128 11.6648 18.6316Z" stroke="#182E50" stroke-width="1.5" stroke-linecap="round" stroke-linejoin="round"/>
<path d="M8.36957 9.32266H15.6648" stroke="#182E50" stroke-width="1.5" stroke-linecap="round" stroke-linejoin="round"/>
</svg>
