<svg width="24" height="24" viewBox="0 0 24 24" fill="none" xmlns="http://www.w3.org/2000/svg">
<path fill-rule="evenodd" clip-rule="evenodd" d="M17.6378 7.1099V7.1099C17.2648 7.1099 16.9268 6.8949 16.7678 6.5589C16.4808 5.9509 16.1158 5.1739 15.8998 4.7509C15.5808 4.1219 15.0638 3.7559 14.3478 3.7509C14.3358 3.7499 9.6638 3.7499 9.6518 3.7509C8.9358 3.7559 8.4198 4.1219 8.0998 4.7509C7.8848 5.1739 7.5198 5.9509 7.2328 6.5589C7.0738 6.8949 6.7348 7.1099 6.3628 7.1099V7.1099C4.3668 7.1099 2.7498 8.7269 2.7498 10.7219V16.6579C2.7498 18.6519 4.3668 20.2699 6.3628 20.2699H17.6378C19.6328 20.2699 21.2498 18.6519 21.2498 16.6579V10.7219C21.2498 8.7269 19.6328 7.1099 17.6378 7.1099Z" stroke="#182E50" stroke-width="1.5" stroke-linecap="round" stroke-linejoin="round"/>
<path fill-rule="evenodd" clip-rule="evenodd" d="M8.82141 13.3345C8.82041 15.0875 10.2514 16.5215 12.0014 16.5205C13.7484 16.5185 15.1754 15.0905 15.1784 13.3415C15.1814 11.5855 13.7554 10.1545 12.0034 10.1525C10.2414 10.1505 8.80741 11.6055 8.82141 13.3345Z" stroke="#182E50" stroke-width="1.5" stroke-linecap="round" stroke-linejoin="round"/>
<path d="M16.9025 10.9951C16.8059 10.9852 16.7105 10.96 16.6036 10.9169C16.4847 10.8641 16.3818 10.7969 16.2823 10.6959C16.1035 10.5057 16 10.257 16 10.0005C16 9.86422 16.0279 9.72916 16.0823 9.60681C16.1368 9.48285 16.2014 9.37829 16.3182 9.26456C16.407 9.18719 16.498 9.12493 16.6224 9.07013C16.9913 8.92396 17.4301 9.0113 17.7043 9.28541C17.7865 9.36639 17.8557 9.46411 17.8941 9.54651L17.9169 9.60494C17.9721 9.72916 18 9.86422 18 10.0005C18 10.2622 17.8978 10.5043 17.7081 10.7058C17.5442 10.8708 17.3289 10.9723 17.0992 10.9951L17 11L16.9025 10.9951Z" fill="#182E50"/>
</svg>
