<svg width="24" height="24" viewBox="0 0 24 24" fill="none" xmlns="http://www.w3.org/2000/svg">
<path d="M17.8065 23.4839C16.0496 23.4839 14.6129 22.0472 14.6129 20.2903C14.6129 19.8197 14.7185 19.3689 14.9032 18.9657L8.58871 14.8377C8.00232 15.5052 7.14674 15.9355 6.19355 15.9355C4.43669 15.9355 3 14.4988 3 12.7419C3 10.985 4.43669 9.54839 6.19355 9.54839C7.15138 9.54839 8.01123 9.97302 8.59777 10.6462L14.9123 6.51815C14.7244 6.11211 14.6129 5.66841 14.6129 5.19355C14.6129 3.43667 16.0496 2 17.8065 2C19.5633 2 21 3.43667 21 5.19355C21 6.95043 19.5633 8.3871 17.8065 8.3871C16.9417 8.3871 16.1511 8.03374 15.5746 7.47077L9.1875 11.6442C9.3133 11.9862 9.3871 12.3576 9.3871 12.7419C9.3871 13.1293 9.31518 13.4955 9.1875 13.8397L15.5655 18.0131C16.1428 17.4449 16.9372 17.0968 17.8065 17.0968C19.5633 17.0968 21 18.5334 21 20.2903C21 22.0472 19.5633 23.4839 17.8065 23.4839ZM17.8065 22.3226C18.9357 22.3226 19.8387 21.4196 19.8387 20.2903C19.8387 19.1611 18.9357 18.2581 17.8065 18.2581C16.6772 18.2581 15.7742 19.1611 15.7742 20.2903C15.7742 21.4196 16.6772 22.3226 17.8065 22.3226ZM6.19355 14.7742C7.32279 14.7742 8.22581 13.8712 8.22581 12.7419C8.22581 11.6127 7.32279 10.7097 6.19355 10.7097C5.06431 10.7097 4.16129 11.6127 4.16129 12.7419C4.16129 13.8712 5.06431 14.7742 6.19355 14.7742ZM17.8065 7.22581C18.9357 7.22581 19.8387 6.32281 19.8387 5.19355C19.8387 4.06429 18.9357 3.16129 17.8065 3.16129C16.6772 3.16129 15.7742 4.06429 15.7742 5.19355C15.7742 6.32281 16.6772 7.22581 17.8065 7.22581Z" fill="#182E50" stroke="#182E50" stroke-width="0.5"/>
</svg>
