<?xml version="1.0" encoding="UTF-8"?>
<svg width="1024px" height="1024px" viewBox="0 0 1024 1024" version="1.1" xmlns="http://www.w3.org/2000/svg" xmlns:xlink="http://www.w3.org/1999/xlink">
    <!-- Generator: Sketch 57.1 (83088) - https://sketch.com -->
    <title>LOGO</title>
    <desc>Created with Sketch.</desc>
    <g id="LOGO" stroke="none" stroke-width="1" fill="none" fill-rule="evenodd">
        <path d="M970,512 C970,764.941908 764.914441,970 512,970 C259.085559,970 54,764.914441 54,512 C54,259.085559 259.085559,54 512,54 C764.914441,54 970,259.048937 970,512 Z M234.782299,481.346926 L166.748275,481.456908 C182.254683,304.367572 331.099719,164.846251 512.047508,164.516305 C593.169953,164.278333 671.79249,192.594607 734.156431,244.509874 L823,244.509874 C747.638671,157.110851 636.153731,101.77158 511.992553,102 C286.055113,102.413141 102.579404,286.687967 103,512.765115 L103.055679,544 L255.765868,543.725045 L234.782299,481.346926 Z M609.34918,245.045818 L515.789899,522.327738 L422.221455,245 L321.551999,481.311384 L251,481.311384 L272.293876,543.862241 L358.642193,543.779768 L414.790589,442.604261 L515.835712,756 L616.862509,442.604261 L673.020068,543.779768 L782,543.779768 L757.902369,481.329711 L715.598658,481.384693 L609.34918,245.045818 Z M773.494173,481.045796 L797.610191,543.466146 L857.255005,543.466146 C841.430871,720.41387 692.451542,859.570491 511.595139,859.570491 C336.468007,859.570491 191.268531,729.051051 167.893841,560.126838 L105,560.126838 C128.795691,763.572298 301.991711,922 511.567682,922 C737.333875,922 921,738.191991 921,512.251392 L921,481 L773.494173,481.045796 Z" id="Shape-Copy" fill="#2E4B77" fill-rule="nonzero" style="mix-blend-mode: multiply;"></path>
    </g>
</svg>