<svg width="24" height="24" viewBox="0 0 24 24" fill="none" xmlns="http://www.w3.org/2000/svg">
<path fill-rule="evenodd" clip-rule="evenodd" d="M7.66979 1.9992H16.3398C19.7298 1.9992 21.9998 4.3792 21.9998 7.9192V16.0902C21.9998 19.6202 19.7298 21.9992 16.3398 21.9992H7.66979C4.27979 21.9992 1.99979 19.6202 1.99979 16.0902V7.9192C1.99979 4.3792 4.27979 1.9992 7.66979 1.9992ZM15.0098 14.9992C15.3498 14.6602 15.3498 14.1102 15.0098 13.7702L13.2298 11.9902L15.0098 10.2092C15.3498 9.8702 15.3498 9.3102 15.0098 8.9702C14.6698 8.6292 14.1198 8.6292 13.7698 8.9702L11.9998 10.7492L10.2198 8.9702C9.86979 8.6292 9.31979 8.6292 8.97979 8.9702C8.63979 9.3102 8.63979 9.8702 8.97979 10.2092L10.7598 11.9902L8.97979 13.7602C8.63979 14.1102 8.63979 14.6602 8.97979 14.9992C9.14979 15.1692 9.37979 15.2602 9.59979 15.2602C9.82979 15.2602 10.0498 15.1692 10.2198 14.9992L11.9998 13.2302L13.7798 14.9992C13.9498 15.1802 14.1698 15.2602 14.3898 15.2602C14.6198 15.2602 14.8398 15.1692 15.0098 14.9992Z" fill="#2E4B77"/>
</svg>
