<svg width="24" height="24" viewBox="0 0 24 24" fill="none" xmlns="http://www.w3.org/2000/svg">
<path fill-rule="evenodd" clip-rule="evenodd" d="M16.3347 2.7502H7.6657C4.6447 2.7502 2.7507 4.8892 2.7507 7.9162V16.0842C2.7507 19.1112 4.6347 21.2502 7.6657 21.2502H16.3337C19.3647 21.2502 21.2507 19.1112 21.2507 16.0842V7.9162C21.2507 4.8892 19.3647 2.7502 16.3347 2.7502Z" stroke="#182E50" stroke-width="1.5" stroke-linecap="round" stroke-linejoin="round"/>
<path d="M7.5208 13.1974C6.8598 13.1974 6.3228 12.6604 6.3228 12.0004C6.3228 11.3404 6.8598 10.8024 7.5208 10.8024C8.1818 10.8024 8.7188 11.3404 8.7188 12.0004C8.7188 12.6604 8.1818 13.1974 7.5208 13.1974Z" fill="#182E50"/>
<path d="M12.0002 13.1974C11.3392 13.1974 10.8022 12.6604 10.8022 12.0004C10.8022 11.3404 11.3392 10.8024 12.0002 10.8024C12.6612 10.8024 13.1982 11.3404 13.1982 12.0004C13.1982 12.6604 12.6612 13.1974 12.0002 13.1974Z" fill="#182E50"/>
<path d="M16.4792 13.1974C15.8182 13.1974 15.2812 12.6604 15.2812 12.0004C15.2812 11.3404 15.8182 10.8024 16.4792 10.8024C17.1402 10.8024 17.6772 11.3404 17.6772 12.0004C17.6772 12.6604 17.1402 13.1974 16.4792 13.1974Z" fill="#182E50"/>
</svg>
